<svg xmlns="http://www.w3.org/2000/svg" viewBox="0 0 32 32" fill="none">
  <path d="M4 12 L20 12 L20 28 L4 28 Z" fill="url(#mf)" />
  <path d="M4 12 L16 4 L28 8 L20 12 Z" fill="url(#tf)" />
  <path d="M20 12 L28 8 L28 24 L20 28 Z" fill="url(#sf)" />
  <rect x="8" y="15" width="3" height="10" rx="0.5" fill="rgba(255,255,255,0.2)" />
  <path d="M8 15 L15 15 Q17.5 15 17.5 18 Q17.5 21 15 21 L11 21 L11 18 L14 18 Q14.5 18 14.5 17.5 Q14.5 17 14 17 L11 17 L11 15 Z" fill="rgba(255,255,255,0.2)" />
  <defs>
    <linearGradient id="mf" x1="4" y1="12" x2="20" y2="28" gradientUnits="userSpaceOnUse">
      <stop offset="0%" stop-color="#C17817" /><stop offset="100%" stop-color="#92510F" />
    </linearGradient>
    <linearGradient id="tf" x1="4" y1="4" x2="28" y2="12" gradientUnits="userSpaceOnUse">
      <stop offset="0%" stop-color="#D4941F" /><stop offset="100%" stop-color="#C17817" />
    </linearGradient>
    <linearGradient id="sf" x1="20" y1="8" x2="28" y2="28" gradientUnits="userSpaceOnUse">
      <stop offset="0%" stop-color="#B06A14" /><stop offset="100%" stop-color="#7A4410" />
    </linearGradient>
  </defs>
</svg>
